<svg width="23" height="30" viewBox="0 0 23 30" fill="none" xmlns="http://www.w3.org/2000/svg">
<path d="M13.3756 27.27C15.8267 24.3938 20.1875 18.5175 20.1875 13.125C20.1875 10.1413 19.2986 7.27983 17.7162 5.17005C16.1339 3.06026 13.9878 1.875 11.75 1.875C9.51224 1.875 7.36612 3.06026 5.78379 5.17005C4.20145 7.27983 3.3125 10.1413 3.3125 13.125C3.3125 18.5175 7.67187 24.3938 10.1244 27.27C10.5717 27.8024 11.1504 28.0966 11.75 28.0966C12.3496 28.0966 12.9283 27.8024 13.3756 27.27V27.27ZM8.9375 13.125C8.9375 12.1304 9.23382 11.1766 9.76126 10.4733C10.2887 9.77009 11.0041 9.375 11.75 9.375C12.4959 9.375 13.2113 9.77009 13.7387 10.4733C14.2662 11.1766 14.5625 12.1304 14.5625 13.125C14.5625 14.1196 14.2662 15.0734 13.7387 15.7767C13.2113 16.4799 12.4959 16.875 11.75 16.875C11.0041 16.875 10.2887 16.4799 9.76126 15.7767C9.23382 15.0734 8.9375 14.1196 8.9375 13.125Z" fill="#185CFF"/>
</svg>
